<svg width="101" height="88" viewBox="0 0 101 88" fill="none" xmlns="http://www.w3.org/2000/svg">
<path d="M17.5122 68.8579C17.9385 68.4316 18.5255 68.1903 19.1467 68.1903H94.9914C95.9698 68.1903 96.5367 69.3128 95.9528 70.0514L81.3177 86.8232C80.8913 87.2495 80.3043 87.4908 79.6831 87.4908H3.83843C2.85999 87.4908 2.29312 86.3683 2.87699 85.6297L17.5122 68.8579Z" fill="url(#paint0_linear_37_544)"/>
<path d="M17.5122 3.27549C17.9656 2.84916 18.5526 2.60791 19.1467 2.60791H94.9914C95.9698 2.60791 96.5367 3.7304 95.9528 4.46902L81.3177 21.2408C80.8913 21.6672 80.3043 21.9084 79.6831 21.9084H3.83843C2.85999 21.9084 2.29312 20.7859 2.87699 20.0473L17.5122 3.27549Z" fill="url(#paint1_linear_37_544)"/>
<path d="M81.3177 35.629C80.8913 35.2027 80.3043 34.9614 79.6831 34.9614H3.83843C2.85999 34.9614 2.29312 36.0839 2.87699 36.8225L17.5122 53.5943C17.9385 54.0207 18.5255 54.2619 19.1467 54.2619H94.9914C95.9698 54.2619 96.5367 53.1395 95.9528 52.4008L81.3177 35.629Z" fill="url(#paint2_linear_37_544)"/>
<defs>
<linearGradient id="paint0_linear_37_544" x1="90.6288" y1="-10.8697" x2="31.3649" y2="102.298" gradientUnits="userSpaceOnUse">
<stop stop-color="#00FFA3"/>
<stop offset="1" stop-color="#DC1FFF"/>
</linearGradient>
<linearGradient id="paint1_linear_37_544" x1="58.1286" y1="-21.7956" x2="-1.13526" y2="91.3721" gradientUnits="userSpaceOnUse">
<stop stop-color="#00FFA3"/>
<stop offset="1" stop-color="#DC1FFF"/>
</linearGradient>
<linearGradient id="paint2_linear_37_544" x1="74.3788" y1="-16.3952" x2="15.115" y2="96.7729" gradientUnits="userSpaceOnUse">
<stop stop-color="#00FFA3"/>
<stop offset="1" stop-color="#DC1FFF"/>
</linearGradient>
</defs>
</svg>